<?xml version="1.0" ?><!DOCTYPE svg  PUBLIC '-//W3C//DTD SVG 1.1//EN'  'http://www.w3.org/Graphics/SVG/1.1/DTD/svg11.dtd'><svg height="411.000" viewBox="-152.000 -299.000 414.000 411.000" width="414.000" xmlns="http://www.w3.org/2000/svg"><polyline fill="none" points="0.0,-0.0 100.0,-0.0 100.0,100.0 50.0,100.0 50.0,50.0 150.0,50.0 150.0,75.0 125.0,75.0 125.0,25.0 133.682408883,-24.2403876506 151.04722665,-122.721162952 249.528001951,-105.356345185 240.845593068,-56.1159575345 191.605205417,-64.7983664179 208.970023184,-163.279141719 233.590217009,-158.937937277 229.249012568,-134.317743452 180.008624917,-143.000152335 133.023993878,-160.101159502 39.0547317991,-194.303173834 73.2567461317,-288.272435913 120.241377171,-271.171428747 103.140370005,-224.186797707 9.17110792612,-258.38881204 17.7216115093,-281.88112756 41.2139270289,-273.330623976 24.1129198626,-226.345992937 -0.887080137374,-183.044722748 -50.8870801374,-96.4421823694 -137.489620516,-146.442182369 -112.489620516,-189.743452559 -69.1883503266,-164.743452559 -119.188350327,-78.1409121802 -140.838985421,-90.6409121802 -128.338985421,-112.291547275 -85.037715232,-87.2915472748 -46.735493076,-55.1521667905 29.8689512359,9.12659417815 -34.4098097328,85.7310384901 -72.7120318887,53.5916580057 -40.5726514044,15.2894358498 36.0317929075,79.5681968184 19.9621026653,98.7193078964" stroke="#000" stroke-linecap="round" stroke-linejoin="round"/><polygon fill="none" fill-rule="evenodd" points="0.0,0.0 0.0,0.0 0.0,0.0" stroke-linejoin="round"/><polyline fill="none" points="19.9621026653,98.7193078964 0.810991587346,82.6496176542 32.9503720717,44.3473954983 71.2525942276,12.208015014 147.85703854,-52.0707459547 212.135799508,24.5336983572 173.833577352,56.6730788415 141.694196868,18.3708566856 218.29864118,-45.9079042831 234.368331422,-26.7567932051 215.217220344,-10.6871029629 183.07783986,-48.9893251189 158.07783986,-92.2905953081 108.07783986,-178.893135687 194.680380238,-228.893135687 219.680380238,-185.591865497 176.379110049,-160.591865497 126.379110049,-247.194405876 148.029745143,-259.694405876 160.529745143,-238.043770781 117.228474954,-213.043770781 70.243843915,-195.942763615 -23.7254181636,-161.740749282 -57.9274324962,-255.710011361 -10.9428014569,-272.811018527 6.15820570939,-225.826387488 -87.8110563692,-191.624373155 -96.3615599523,-215.116688675 -72.8692444327,-223.667192258 -55.7682372664,-176.682561219 -47.0858283831,-127.442173568 -29.7210106164,-28.961398267 -128.201785918,-11.5965805003 -136.884194801,-60.8369681509 -87.6438071503,-69.5193770342 -70.2789893836,28.961398267 -94.8991832089,33.3026027087 -99.2403876506,8.68240888335 -50.0,1.06581410364e-13 2.55795384874e-13,-2.10942374679e-14 100.0,-2.76445533132e-13 100.0,100.0 50.0,100.0" stroke="#000" stroke-linecap="round" stroke-linejoin="round"/><polyline fill="none" points="50.0,100.0 50.0,50.0 150.0,50.0 150.0,75.0 125.0,75.0 125.0,25.0 133.682408883,-24.2403876506 151.04722665,-122.721162952 249.528001951,-105.356345185 240.845593068,-56.1159575345 191.605205417,-64.7983664179 208.970023184,-163.279141719 233.590217009,-158.937937277 229.249012568,-134.317743452 180.008624917,-143.000152335 133.023993878,-160.101159502 39.0547317991,-194.303173834 73.2567461317,-288.272435913 120.241377171,-271.171428747 103.140370005,-224.186797707 9.17110792612,-258.38881204 17.7216115093,-281.88112756 41.2139270289,-273.330623976 24.1129198626,-226.345992937 -0.887080137375,-183.044722748 -50.8870801374,-96.4421823694 -137.489620516,-146.442182369 -112.489620516,-189.743452559 -69.1883503266,-164.743452559 -119.188350327,-78.1409121802 -140.838985421,-90.6409121802 -128.338985421,-112.291547275 -85.037715232,-87.2915472748 -46.735493076,-55.1521667905 29.8689512359,9.12659417815 -34.4098097328,85.7310384901 -72.7120318887,53.5916580057 -40.5726514044,15.2894358498 36.0317929075,79.5681968184 19.9621026653,98.7193078964 0.810991587346,82.6496176542 32.9503720717,44.3473954983 71.2525942276,12.208015014" stroke="#000" stroke-linecap="round" stroke-linejoin="round"/><polyline fill="none" points="71.2525942276,12.208015014 147.85703854,-52.0707459547 212.135799508,24.5336983572 173.833577352,56.6730788415 141.694196868,18.3708566856 218.29864118,-45.9079042831 234.368331422,-26.7567932051 215.217220344,-10.6871029629 183.07783986,-48.9893251189 158.07783986,-92.2905953081" stroke="#000" stroke-linecap="round" stroke-linejoin="round"/><line fill="none" stroke="none" stroke-linecap="round" x1="0.0" x2="0.0" y1="0.0" y2="0.0"/></svg>