<!DOCTYPE svg PUBLIC "-//W3C//DTD SVG 1.1//EN" "http://www.w3.org/Graphics/SVG/1.1/DTD/svg11.dtd">
<svg xmlns="http://www.w3.org/2000/svg" height="106.29921px" viewBox="-110.0 -111.5 221.0 221.0" width="106.29921px"><polyline fill="none" points="0.0,-0.0 15.4508497187,-2.44717418524 29.3892626146,-9.54915028125 40.4508497187,-20.6107373854 47.5528258148,-34.5491502813 50.0,-50.0 47.5528258148,-65.4508497187 40.4508497187,-79.3892626146 29.3892626146,-90.4508497187 15.4508497187,-97.5528258148 3.73034936274e-14,-100.0 -15.4508497187,-97.5528258148 -29.3892626146,-90.4508497187 -40.4508497187,-79.3892626146 -47.5528258148,-65.4508497187 -50.0,-50.0 -47.5528258148,-34.5491502813 -40.4508497187,-20.6107373854 -29.3892626146,-9.54915028125 -15.4508497187,-2.44717418524 -3.37507799486e-14,-6.08402217495e-14 13.4090508135,8.05697057239 28.6515567971,11.575980357 44.2354752643,10.2125641579 58.635343696,4.10018265187 70.4416026403,-6.16284167162 78.4985732127,-19.5718924852 82.0175829973,-34.8143984687 80.6541667981,-50.3983169359 74.5417852921,-64.7981853676 64.2787609687,-76.6044443119 50.8697101551,-84.6614148843 35.6272041715,-88.1804246689 20.0432857043,-86.8170084697 5.64341727267,-80.7046269638 -6.16284167162,-70.4416026403 -14.219812244,-57.0325518267 -17.7388220287,-41.7900458432 -16.3754058295,-26.206127376 -10.2630243235,-11.8062589443 0.0,-1.29674049276e-13 5.09300800766,14.7911692559 14.5074691277,27.2845811336" stroke="#000" stroke-linecap="round" stroke-linejoin="round"/><polygon fill="none" fill-rule="evenodd" points="0.0,0.0 0.0,0.0 0.0,0.0" stroke-linejoin="round"/><polyline fill="none" points="14.5074691277,27.2845811336 27.3218303112,36.2572934316 42.2817326026,40.8309945537 57.922796534,40.5579787673 72.7139657899,35.4649707596 85.2073776675,26.0505096396 94.1800899656,13.2361484561 98.7537910877,-1.72375383534 98.4807753012,-17.3648177667 93.3877672936,-32.1559870226 83.9733061736,-44.6493989003 71.1589449901,-53.6221111983 56.1990426986,-58.1958123204 40.5579787673,-57.922796534 25.7668095113,-52.8297885263 13.2733976337,-43.4153274063 4.30068533565,-30.6009662228 -0.273015786468,-15.6410639313 1.18238752123e-14,-1.29674049276e-13 -5.60610984747,14.6044154591 -6.42482457919,30.2264231634 -2.37600269291,45.3368321538 6.14402891535,58.4565303179 18.3012701892,68.3012701892 32.9056856483,73.9073800367 48.5276933526,74.7260947684 63.638102343,70.6772728821 76.7578005072,62.1572412739 86.6025403784,50.0 92.2086502259,35.3955845409 93.0273649576,19.7735768366 88.9785430714,4.66316784621 80.4585114631,-8.45653031794 68.3012701892,-18.3012701892 53.6968547301,-23.9073800367 38.0748470258,-24.7260947684 22.9644380354,-20.6772728821 9.84473987128,-12.1572412739 3.73034936274e-14,-1.24344978758e-13 -13.6820666,7.58409335896 -24.3508714615,19.0249858658 -30.9620776306,33.2027632484 -32.8685341847,48.7296058744" stroke="#000" stroke-linecap="round" stroke-linejoin="round"/><polyline fill="none" points="-32.8685341847,48.7296058744 -29.883623873,64.0856382056 -22.2995305141,77.7677048056 -10.8586380073,88.436509667 3.31913937543,95.0477158362 18.8459820014,96.9541723902 34.2020143326,93.9692620786 47.8840809326,86.3851687196 58.552885794,74.9442762128 65.1640919632,60.7664988301 67.0705485172,45.2396562042 64.0856382056,29.883623873 56.5015448466,16.201557273 45.0606523398,5.53275241154 30.8828749571,-1.07845375762 15.3560323312,-2.98491031166 4.97379915032e-14,-1.03028696685e-13 -15.3560323312,-2.98491031166 -30.8828749571,-1.07845375762 -45.0606523398,5.53275241154 -56.5015448466,16.201557273 -64.0856382056,29.883623873 -67.0705485172,45.2396562042 -65.1640919632,60.7664988301 -58.552885794,74.9442762128 -47.8840809326,86.3851687196 -34.2020143326,93.9692620786 -18.8459820014,96.9541723902 -3.31913937543,95.0477158362 10.8586380073,88.436509667 22.2995305141,77.7677048056 29.883623873,64.0856382056 32.8685341847,48.7296058744 30.9620776306,33.2027632484 24.3508714615,19.0249858658 13.6820666,7.58409335896 4.79616346638e-14,-1.03916875105e-13 -9.84473987128,-12.1572412739 -22.9644380354,-20.6772728821 -38.0748470258,-24.7260947684 -53.6968547301,-23.9073800367 -68.3012701892,-18.3012701892 -80.4585114631,-8.45653031794" stroke="#000" stroke-linecap="round" stroke-linejoin="round"/><polyline fill="none" points="-80.4585114631,-8.45653031794 -88.9785430714,4.66316784621 -93.0273649576,19.7735768366 -92.2086502259,35.3955845409 -86.6025403784,50.0 -76.7578005072,62.1572412739 -63.638102343,70.6772728821 -48.5276933526,74.7260947684 -32.9056856483,73.9073800367 -18.3012701892,68.3012701892 -6.14402891535,58.4565303179 2.37600269291,45.3368321538 6.42482457919,30.2264231634 5.60610984747,14.6044154591 -6.2172489379e-15,-6.2172489379e-14 0.273015786468,-15.6410639313 -4.30068533565,-30.6009662228 -13.2733976337,-43.4153274063 -25.7668095113,-52.8297885263 -40.5579787673,-57.922796534 -56.1990426986,-58.1958123204 -71.1589449901,-53.6221111983 -83.9733061736,-44.6493989003 -93.3877672936,-32.1559870226 -98.4807753012,-17.3648177667 -98.7537910877,-1.72375383534 -94.1800899656,13.2361484561 -85.2073776675,26.0505096396 -72.7139657899,35.4649707596 -57.922796534,40.5579787673 -42.2817326026,40.8309945537 -27.3218303112,36.2572934316 -14.5074691277,27.2845811336 -5.09300800766,14.7911692559 -5.86197757002e-14,-6.57252030578e-14 10.2630243235,-11.8062589443 16.3754058295,-26.206127376 17.7388220287,-41.7900458432 14.219812244,-57.0325518267 6.16284167162,-70.4416026403 -5.64341727267,-80.7046269638 -20.0432857043,-86.8170084697 -35.6272041715,-88.1804246689" stroke="#000" stroke-linecap="round" stroke-linejoin="round"/><polyline fill="none" points="-35.6272041715,-88.1804246689 -50.8697101551,-84.6614148843 -64.2787609687,-76.6044443119 -74.5417852921,-64.7981853676 -80.6541667981,-50.3983169359 -82.0175829973,-34.8143984687 -78.4985732127,-19.5718924852 -70.4416026403,-6.16284167162 -58.635343696,4.10018265187 -44.2354752643,10.2125641579 -28.6515567971,11.575980357 -13.4090508135,8.05697057239 -9.23705556488e-14,-9.41469124882e-14" stroke="#000" stroke-linecap="round" stroke-linejoin="round"/><line fill="none" stroke="none" stroke-linecap="round" x1="0.0" x2="0.0" y1="0.0" y2="0.0"/></svg>